# xmcd
#
# Track frame offsets:
#	150
#	27846
#	50220
#	72274
#	88625
#	106791
#	122967
#	146725
#	164499
#	223569
#	247706
#
# Disc length: 3479 seconds
#
# Revision: 0
# Processed by: cddbd v1.5.2PL0 Copyright (c) Steve Scherf et al.
# Submitted via: EasyCDDAExtractor 10.0.2.1
#
DISCID=9b0d950b
DTITLE=BZB (Butch Zito Band) - Last Chance Hotel
DYEAR=1998
DGENRE=Blues
TTITLE0=Last Chance Hotel
TTITLE1=Common Sense
TTITLE2=Far Away From Here
TTITLE3=All Of Us Will Be All Right
TTITLE4=Rumor Has It
TTITLE5=Back To The Clouds
TTITLE6=Twilight
TTITLE7=Don't Know When To Quit
TTITLE8=Tall Grass
TTITLE9=Rearrange
TTITLE10=Chicken Song (Hidden Bonus Track)
EXTD=
EXTT0=
EXTT1=
EXTT2=
EXTT3=
EXTT4=
EXTT5=
EXTT6=
EXTT7=
EXTT8=
EXTT9=
EXTT10=
PLAYORDER=
